<svg width="75" height="75" viewBox="0 0 75 75" fill="none" xmlns="http://www.w3.org/2000/svg">
<path d="M62.5 18.75H55.6875C56.0312 17.7812 56.25 16.7188 56.25 15.625C56.25 10.4375 52.0625 6.25 46.875 6.25C43.5938 6.25 40.75 7.9375 39.0625 10.4687L37.5 12.5625L35.9375 10.4375C34.25 7.9375 31.4062 6.25 28.125 6.25C22.9375 6.25 18.75 10.4375 18.75 15.625C18.75 16.7188 18.9687 17.7812 19.3125 18.75H12.5C9.03125 18.75 6.28125 21.5312 6.28125 25L6.25 59.375C6.25 62.8438 9.03125 65.625 12.5 65.625H62.5C65.9688 65.625 68.75 62.8438 68.75 59.375V25C68.75 21.5312 65.9688 18.75 62.5 18.75ZM46.875 12.5C48.5938 12.5 50 13.9062 50 15.625C50 17.3438 48.5938 18.75 46.875 18.75C45.1562 18.75 43.75 17.3438 43.75 15.625C43.75 13.9062 45.1562 12.5 46.875 12.5ZM28.125 12.5C29.8438 12.5 31.25 13.9062 31.25 15.625C31.25 17.3438 29.8438 18.75 28.125 18.75C26.4062 18.75 25 17.3438 25 15.625C25 13.9062 26.4062 12.5 28.125 12.5ZM62.5 59.375H12.5V53.125H62.5V59.375ZM62.5 43.75H12.5V25H28.375L21.875 33.8438L26.9375 37.5L34.375 27.375L37.5 23.125L40.625 27.375L48.0625 37.5L53.125 33.8438L46.625 25H62.5V43.75Z" fill="#FFA49F"/>
</svg>
