<svg width="75" height="75" viewBox="0 0 75 75" fill="none" xmlns="http://www.w3.org/2000/svg">
<path d="M59.375 15.625V59.375H15.625V15.625H59.375ZM62.8125 9.375H12.1875C10.625 9.375 9.375 10.625 9.375 12.1875V62.8125C9.375 64.0625 10.625 65.625 12.1875 65.625H62.8125C64.0625 65.625 65.625 64.0625 65.625 62.8125V12.1875C65.625 10.625 64.0625 9.375 62.8125 9.375ZM34.375 21.875H53.125V28.125H34.375V21.875ZM34.375 34.375H53.125V40.625H34.375V34.375ZM34.375 46.875H53.125V53.125H34.375V46.875ZM21.875 21.875H28.125V28.125H21.875V21.875ZM21.875 34.375H28.125V40.625H21.875V34.375ZM21.875 46.875H28.125V53.125H21.875V46.875Z" fill="#FFA49F"/>
</svg>
