<svg width="75" height="75" viewBox="0 0 75 75" fill="none" xmlns="http://www.w3.org/2000/svg">
<path d="M59.8125 40.4248C59.925 39.4873 60 38.5123 60 37.4998C60 36.4873 59.925 35.5123 59.775 34.5748L66.1125 29.6248C66.675 29.1748 66.825 28.3498 66.4875 27.7123L60.4875 17.3248C60.1125 16.6498 59.325 16.4248 58.65 16.6498L51.1875 19.6498C49.6125 18.4498 47.9625 17.4748 46.125 16.7248L45 8.77476C44.8875 8.02476 44.25 7.49976 43.5 7.49976H31.5C30.75 7.49976 30.15 8.02476 30.0375 8.77476L28.9125 16.7248C27.075 17.4748 25.3875 18.4873 23.85 19.6498L16.3875 16.6498C15.7125 16.3873 14.925 16.6498 14.55 17.3248L8.54997 27.7123C8.17497 28.3873 8.32497 29.1748 8.92497 29.6248L15.2625 34.5748C15.1125 35.5123 15 36.5248 15 37.4998C15 38.4748 15.075 39.4873 15.225 40.4248L8.88747 45.3748C8.32497 45.8248 8.17497 46.6498 8.51247 47.2873L14.5125 57.6748C14.8875 58.3498 15.675 58.5748 16.35 58.3498L23.8125 55.3498C25.3875 56.5498 27.0375 57.5248 28.875 58.2748L30 66.2248C30.15 66.9748 30.75 67.4998 31.5 67.4998H43.5C44.25 67.4998 44.8875 66.9748 44.9625 66.2248L46.0875 58.2748C47.925 57.5248 49.6125 56.5123 51.15 55.3498L58.6125 58.3498C59.2875 58.6123 60.075 58.3498 60.45 57.6748L66.45 47.2873C66.825 46.6123 66.675 45.8248 66.075 45.3748L59.8125 40.4248ZM37.5 48.7498C31.3125 48.7498 26.25 43.6873 26.25 37.4998C26.25 31.3123 31.3125 26.2498 37.5 26.2498C43.6875 26.2498 48.75 31.3123 48.75 37.4998C48.75 43.6873 43.6875 48.7498 37.5 48.7498Z" fill="#B9B9B9"/>
</svg>
