<svg xmlns="http://www.w3.org/2000/svg" width="785" height="177" viewBox="0 0 785 177">
  <defs>
    <style>
      .cls-1 {
        fill: #eee;
        fill-rule: evenodd;
      }
    </style>
  </defs>
  <path id="Unwind" class="cls-1" d="M185.779,132.362q-13.8,15.336-20.508,20.363t-12.451,5.028q-5.127,0-8.179-4.822t-3.052-12.876q0-10.742,9.106-50.045T167.88,22.024l5.751-20.748q0.486-1.725-3.3-1.726L152.85,1.5q-5.991.732-8.129,1.221a4.92,4.92,0,0,0-3.055,1.77q-0.916,1.282-4.217,10.986t-7.7,24.841L119.128,78.285q-7.2,26.733-12.268,40.65A122.8,122.8,0,0,1,93.25,145.546q-8.546,12.7-17.944,12.7a9.514,9.514,0,0,1-7.874-3.6q-2.869-3.6-2.869-9.947,0-9.764,10.021-37.718Q89,66.578,88.977,43.5q0-19.655-9.766-31.8A31.059,31.059,0,0,0,53.821-.45q-19.9,0-36.743,19.47T0.232,61.806A29.059,29.059,0,0,0,4.749,77.553q4.515,7.2,9.521,7.2,4.272,0,9.644-5.859t5.371-9.888q0-1.831-3.052-4.517a23.926,23.926,0,0,1-8.179-18.433q0-12.451,9.033-23.865T45.764,10.78a12.4,12.4,0,0,1,10.315,5.188q3.965,5.19,3.967,13.733,0,11.965-12.573,48.34-14.894,42.48-14.893,60.913,0,17.092,8,27.222t21.179,10.132q27.22,0,48.584-41.016-0.732,22.218,8.3,31.616t19.409,9.4q19.9,0,47.73-29.908V132.362Zm119.751,0.122q-19.95,23.56-28.883,23.56-6,0-6-7.345,0-5.508,7.2-23.941Q288.344,97.9,288.345,86.2A17.122,17.122,0,0,0,284.2,74.434a13.251,13.251,0,0,0-10.359-4.694q-9.138,0-20.9,8.606t-31.765,30.945q2.929-14.525,12.329-39.795l-29.785,5.737q-10.134,21.973-14.709,39.551a147.216,147.216,0,0,0-4.578,37.232q0,8.057,1.343,24.536l26.977-6.348q0-10.986.367-17.456a184.922,184.922,0,0,1,2.441-19.043,25.217,25.217,0,0,1,5.615-11.6l6.836-7.934q3.783-4.4,7.08-7.813,3.783-4.028,6.836-6.836a56.142,56.142,0,0,1,5.982-4.761,9.525,9.525,0,0,1,4.516-1.709q3.049,0,3.052,3.906t-5.737,18.31Q239,142.129,239,155.189q0,9.645,5,15.381a16.644,16.644,0,0,0,13.184,5.738q20.142,0,48.34-29.786V132.484Zm169.189,0q-12.33,13.306-20.508,13.306-6.837,0-12.939-5.737,19.9-32.594,19.9-58.35,0-11.962-7.934-11.963-11.476,0-20.63,14.1t-9.155,32.41a50.506,50.506,0,0,0,6.469,24.536q-7.209,9.645-12.95,14.4a18.852,18.852,0,0,1-12.219,4.761,10,10,0,0,1-8.43-4.274q-3.177-4.275-3.176-11.479,0-11.844,6.595-32.226l13.678-42.227-32.692,5.978-10.01,29.541a124.328,124.328,0,0,0-6.958,39.795q-9.767,15.137-19.531,15.136a9.278,9.278,0,0,1-7.69-4.03,16.721,16.721,0,0,1-3.052-10.382q-0.046-13.433,11.431-48.822l9.033-27.212-32.183,5.974a406.854,406.854,0,0,0-13.244,38.818,118.238,118.238,0,0,0-4.334,31.25q0,14.283,7.08,22.4t19.409,8.118q18.921,0,35.279-19.043,7.445,19.043,24.78,19.043,23.558,0,45.776-27.588,8.544,6.837,17.456,6.836A29.531,29.531,0,0,0,463,153.48a38.61,38.61,0,0,0,11.719-6.958V132.484ZM519.153,27.016q-5.859,0-15.5-5.981A88.638,88.638,0,0,1,492.664,45.2a26.726,26.726,0,0,0,17.944,6.348q21.606,0,21.606-29.3-6.471,4.761-13.061,4.761h0Zm15.5,105.468q-10.377,11.6-15.2,15.076a16.348,16.348,0,0,1-9.583,3.479,5.28,5.28,0,0,1-4.455-2.5,11.06,11.06,0,0,1-1.77-6.531q0-10.131,7.568-33.814l12.207-38.208H521.96l-31.005,6.47q-17.579,46.023-17.579,72.022,0,12.084,5.372,20.08t13.183,8q14.16,0,42.725-30.03V132.484Zm119.873,0q-19.95,23.56-28.883,23.56-6,0-6-7.345,0-5.508,7.2-23.941,10.5-26.857,10.5-38.561A17.122,17.122,0,0,0,633.2,74.434a13.251,13.251,0,0,0-10.359-4.694q-9.138,0-20.9,8.606t-31.765,30.945q2.929-14.525,12.329-39.795l-29.785,5.737q-10.134,21.973-14.709,39.551a147.216,147.216,0,0,0-4.578,37.232q0,8.057,1.343,24.536l26.977-6.348q0-10.986.367-17.456a184.922,184.922,0,0,1,2.441-19.043,25.227,25.227,0,0,1,5.615-11.6l6.836-7.934q3.783-4.4,7.08-7.813,3.783-4.028,6.836-6.836a56.142,56.142,0,0,1,5.982-4.761,9.525,9.525,0,0,1,4.516-1.709q3.049,0,3.052,3.906t-5.737,18.31Q588,142.129,588,155.189q0,9.645,5,15.381a16.644,16.644,0,0,0,13.184,5.738q20.142,0,48.34-29.786V132.484Zm130.249,0q-17.913,20.265-25.711,20.264a5.966,5.966,0,0,1-5.118-2.806A12.808,12.808,0,0,1,752,142.5q0-19.764,24.391-115.473,6.1-23.927,6.1-25.274,0-1.957-2.443-1.957-7.457,0-28.838,5l-17.456,73a31.489,31.489,0,0,0-7.873-6.226q-3.6-1.831-9.949-1.831-22.828,0-42.663,23.254T653.43,143.471a35.522,35.522,0,0,0,7.935,23.01q7.933,9.828,18.31,9.827,9.522,0,21.3-8.423t21.789-24.658q0.12,16.236,5.188,24.658t13.733,8.423q7.078,0,16.3-6.165t26.8-23.621V132.484Zm-96.741,16.6q-3.113-3.906-3.113-10.62,0-17.09,10.62-38.269t21.973-21.179A10.149,10.149,0,0,1,726,83.29q3.232,4.274,3.235,11.475,0,17.7-10.376,37.964t-22.339,20.263A10.262,10.262,0,0,1,688.037,149.086Z"/>
</svg>
